<svg width="488" height="501" viewBox="0 0 488 501" fill="none" xmlns="http://www.w3.org/2000/svg">
<path d="M0 12.3335C0 5.70607 5.37258 0.333496 12 0.333496H476C482.627 0.333496 488 5.70608 488 12.3335V488.333C488 494.961 482.627 500.333 476 500.333H12C5.37257 500.333 0 494.961 0 488.333V12.3335Z" fill="#240A51"/>
<path d="M140.207 241.879V259.333H136.517V241.879H140.207ZM143.175 259.333V246.243H146.636V248.552H146.789C147.062 247.785 147.516 247.18 148.153 246.737C148.789 246.294 149.55 246.072 150.437 246.072C151.335 246.072 152.099 246.297 152.729 246.745C153.36 247.189 153.781 247.791 153.991 248.552H154.127C154.394 247.802 154.877 247.203 155.576 246.754C156.281 246.299 157.113 246.072 158.073 246.072C159.295 246.072 160.286 246.461 161.048 247.24C161.815 248.012 162.198 249.109 162.198 250.53V259.333H158.576V251.245C158.576 250.518 158.383 249.973 157.996 249.609C157.61 249.245 157.127 249.064 156.548 249.064C155.888 249.064 155.374 249.274 155.005 249.694C154.636 250.109 154.451 250.657 154.451 251.339V259.333H150.931V251.169C150.931 250.527 150.746 250.015 150.377 249.635C150.013 249.254 149.533 249.064 148.937 249.064C148.533 249.064 148.17 249.166 147.846 249.37C147.528 249.569 147.275 249.851 147.087 250.214C146.9 250.572 146.806 250.993 146.806 251.476V259.333H143.175ZM168.799 259.581C167.964 259.581 167.219 259.436 166.566 259.146C165.913 258.851 165.396 258.416 165.015 257.842C164.64 257.262 164.452 256.541 164.452 255.677C164.452 254.95 164.586 254.339 164.853 253.845C165.12 253.351 165.484 252.953 165.944 252.652C166.404 252.351 166.927 252.123 167.512 251.97C168.103 251.816 168.722 251.708 169.37 251.646C170.131 251.566 170.745 251.493 171.211 251.424C171.677 251.351 172.015 251.243 172.225 251.101C172.435 250.958 172.54 250.748 172.54 250.47V250.419C172.54 249.879 172.37 249.461 172.029 249.166C171.694 248.87 171.217 248.723 170.597 248.723C169.944 248.723 169.424 248.868 169.038 249.157C168.651 249.441 168.396 249.799 168.271 250.231L164.913 249.958C165.083 249.163 165.418 248.476 165.918 247.896C166.418 247.311 167.063 246.862 167.853 246.549C168.648 246.231 169.569 246.072 170.614 246.072C171.342 246.072 172.038 246.157 172.702 246.328C173.373 246.498 173.967 246.762 174.484 247.12C175.006 247.478 175.418 247.939 175.719 248.501C176.021 249.058 176.171 249.726 176.171 250.504V259.333H172.728V257.518H172.626C172.415 257.927 172.134 258.288 171.782 258.601C171.43 258.907 171.006 259.149 170.512 259.325C170.018 259.495 169.447 259.581 168.799 259.581ZM169.839 257.075C170.373 257.075 170.844 256.97 171.254 256.76C171.663 256.544 171.984 256.254 172.217 255.89C172.45 255.527 172.566 255.115 172.566 254.655V253.265C172.452 253.339 172.296 253.407 172.097 253.47C171.904 253.527 171.685 253.581 171.441 253.632C171.197 253.677 170.952 253.72 170.708 253.76C170.464 253.794 170.242 253.825 170.043 253.853C169.617 253.916 169.245 254.015 168.927 254.152C168.609 254.288 168.362 254.473 168.185 254.706C168.009 254.933 167.921 255.217 167.921 255.558C167.921 256.052 168.1 256.43 168.458 256.691C168.822 256.947 169.282 257.075 169.839 257.075ZM184.886 264.515C183.71 264.515 182.701 264.353 181.86 264.03C181.025 263.711 180.36 263.277 179.866 262.726C179.371 262.174 179.05 261.555 178.903 260.868L182.261 260.416C182.363 260.677 182.525 260.922 182.746 261.149C182.968 261.376 183.261 261.558 183.624 261.694C183.994 261.836 184.442 261.907 184.971 261.907C185.761 261.907 186.411 261.714 186.923 261.328C187.44 260.947 187.698 260.308 187.698 259.41V257.015H187.545C187.386 257.379 187.147 257.723 186.829 258.047C186.511 258.37 186.102 258.635 185.602 258.839C185.102 259.044 184.505 259.146 183.812 259.146C182.829 259.146 181.934 258.919 181.127 258.464C180.326 258.004 179.687 257.302 179.21 256.359C178.738 255.41 178.502 254.211 178.502 252.762C178.502 251.28 178.744 250.041 179.227 249.047C179.71 248.052 180.352 247.308 181.153 246.814C181.96 246.319 182.843 246.072 183.803 246.072C184.536 246.072 185.15 246.197 185.644 246.447C186.138 246.691 186.536 246.998 186.837 247.368C187.144 247.731 187.38 248.089 187.545 248.441H187.681V246.243H191.286V259.461C191.286 260.575 191.013 261.507 190.468 262.257C189.923 263.007 189.167 263.569 188.201 263.944C187.241 264.325 186.136 264.515 184.886 264.515ZM184.962 256.419C185.548 256.419 186.042 256.274 186.445 255.984C186.854 255.689 187.167 255.268 187.383 254.723C187.604 254.172 187.715 253.512 187.715 252.745C187.715 251.978 187.607 251.314 187.391 250.751C187.175 250.183 186.863 249.743 186.454 249.43C186.045 249.118 185.548 248.961 184.962 248.961C184.366 248.961 183.863 249.123 183.454 249.447C183.045 249.765 182.735 250.208 182.525 250.777C182.315 251.345 182.21 252.001 182.21 252.745C182.21 253.501 182.315 254.155 182.525 254.706C182.741 255.251 183.05 255.674 183.454 255.976C183.863 256.271 184.366 256.419 184.962 256.419ZM200.141 259.589C198.795 259.589 197.636 259.316 196.664 258.771C195.698 258.22 194.954 257.441 194.431 256.436C193.908 255.424 193.647 254.228 193.647 252.848C193.647 251.501 193.908 250.319 194.431 249.302C194.954 248.285 195.69 247.493 196.638 246.924C197.593 246.356 198.712 246.072 199.996 246.072C200.86 246.072 201.664 246.211 202.408 246.49C203.158 246.762 203.812 247.174 204.369 247.726C204.931 248.277 205.369 248.97 205.681 249.805C205.994 250.635 206.15 251.606 206.15 252.72V253.717H195.096V251.467H202.732C202.732 250.944 202.619 250.481 202.391 250.078C202.164 249.674 201.849 249.359 201.445 249.132C201.048 248.899 200.585 248.782 200.056 248.782C199.505 248.782 199.016 248.91 198.59 249.166C198.17 249.416 197.84 249.754 197.602 250.18C197.363 250.601 197.241 251.069 197.235 251.586V253.726C197.235 254.373 197.354 254.933 197.593 255.405C197.837 255.876 198.181 256.24 198.624 256.495C199.067 256.751 199.593 256.879 200.201 256.879C200.604 256.879 200.974 256.822 201.309 256.708C201.644 256.595 201.931 256.424 202.17 256.197C202.408 255.97 202.59 255.691 202.715 255.362L206.073 255.583C205.903 256.39 205.553 257.095 205.025 257.697C204.502 258.294 203.826 258.76 202.996 259.095C202.173 259.424 201.221 259.589 200.141 259.589ZM214.074 264.243V246.243H217.653V248.441H217.815C217.974 248.089 218.205 247.731 218.506 247.368C218.813 246.998 219.21 246.691 219.699 246.447C220.193 246.197 220.807 246.072 221.54 246.072C222.494 246.072 223.375 246.322 224.182 246.822C224.989 247.316 225.634 248.064 226.116 249.064C226.599 250.058 226.841 251.305 226.841 252.805C226.841 254.265 226.605 255.498 226.134 256.504C225.668 257.504 225.031 258.262 224.224 258.78C223.423 259.291 222.526 259.547 221.531 259.547C220.827 259.547 220.227 259.43 219.733 259.197C219.244 258.964 218.844 258.672 218.531 258.319C218.219 257.961 217.98 257.601 217.815 257.237H217.705V264.243H214.074ZM217.628 252.788C217.628 253.566 217.736 254.245 217.952 254.825C218.168 255.405 218.48 255.856 218.889 256.18C219.298 256.498 219.795 256.657 220.381 256.657C220.972 256.657 221.472 256.495 221.881 256.172C222.29 255.842 222.599 255.387 222.81 254.808C223.026 254.223 223.134 253.549 223.134 252.788C223.134 252.032 223.028 251.368 222.818 250.794C222.608 250.22 222.298 249.771 221.889 249.447C221.48 249.123 220.977 248.961 220.381 248.961C219.79 248.961 219.29 249.118 218.881 249.43C218.477 249.743 218.168 250.186 217.952 250.76C217.736 251.333 217.628 252.01 217.628 252.788ZM232.892 241.879V259.333H229.261V241.879H232.892ZM239.533 259.581C238.698 259.581 237.954 259.436 237.3 259.146C236.647 258.851 236.13 258.416 235.749 257.842C235.374 257.262 235.187 256.541 235.187 255.677C235.187 254.95 235.32 254.339 235.587 253.845C235.854 253.351 236.218 252.953 236.678 252.652C237.138 252.351 237.661 252.123 238.246 251.97C238.837 251.816 239.457 251.708 240.104 251.646C240.866 251.566 241.479 251.493 241.945 251.424C242.411 251.351 242.749 251.243 242.96 251.101C243.17 250.958 243.275 250.748 243.275 250.47V250.419C243.275 249.879 243.104 249.461 242.763 249.166C242.428 248.87 241.951 248.723 241.332 248.723C240.678 248.723 240.158 248.868 239.772 249.157C239.386 249.441 239.13 249.799 239.005 250.231L235.647 249.958C235.817 249.163 236.153 248.476 236.653 247.896C237.153 247.311 237.798 246.862 238.587 246.549C239.383 246.231 240.303 246.072 241.349 246.072C242.076 246.072 242.772 246.157 243.437 246.328C244.107 246.498 244.701 246.762 245.218 247.12C245.741 247.478 246.153 247.939 246.454 248.501C246.755 249.058 246.906 249.726 246.906 250.504V259.333H243.462V257.518H243.36C243.15 257.927 242.869 258.288 242.516 258.601C242.164 258.907 241.741 259.149 241.246 259.325C240.752 259.495 240.181 259.581 239.533 259.581ZM240.573 257.075C241.107 257.075 241.579 256.97 241.988 256.76C242.397 256.544 242.718 256.254 242.951 255.89C243.184 255.527 243.3 255.115 243.3 254.655V253.265C243.187 253.339 243.031 253.407 242.832 253.47C242.638 253.527 242.42 253.581 242.175 253.632C241.931 253.677 241.687 253.72 241.442 253.76C241.198 253.794 240.977 253.825 240.778 253.853C240.352 253.916 239.979 254.015 239.661 254.152C239.343 254.288 239.096 254.473 238.92 254.706C238.744 254.933 238.656 255.217 238.656 255.558C238.656 256.052 238.835 256.43 239.192 256.691C239.556 256.947 240.016 257.075 240.573 257.075ZM255.637 259.589C254.296 259.589 253.143 259.305 252.177 258.737C251.217 258.163 250.478 257.368 249.961 256.351C249.45 255.333 249.194 254.163 249.194 252.839C249.194 251.498 249.452 250.322 249.969 249.311C250.492 248.294 251.234 247.501 252.194 246.933C253.154 246.359 254.296 246.072 255.62 246.072C256.762 246.072 257.762 246.28 258.62 246.694C259.478 247.109 260.157 247.691 260.657 248.441C261.157 249.191 261.433 250.072 261.484 251.083H258.058C257.961 250.43 257.705 249.905 257.29 249.507C256.881 249.103 256.344 248.902 255.68 248.902C255.117 248.902 254.626 249.055 254.205 249.362C253.79 249.663 253.467 250.103 253.234 250.683C253.001 251.262 252.884 251.964 252.884 252.788C252.884 253.623 252.998 254.333 253.225 254.919C253.458 255.504 253.785 255.95 254.205 256.257C254.626 256.564 255.117 256.717 255.68 256.717C256.094 256.717 256.467 256.632 256.796 256.461C257.131 256.291 257.407 256.044 257.623 255.72C257.844 255.39 257.989 254.995 258.058 254.535H261.484C261.427 255.535 261.154 256.416 260.665 257.177C260.183 257.933 259.515 258.524 258.663 258.95C257.81 259.376 256.802 259.589 255.637 259.589ZM269.774 259.589C268.428 259.589 267.268 259.316 266.297 258.771C265.331 258.22 264.587 257.441 264.064 256.436C263.541 255.424 263.28 254.228 263.28 252.848C263.28 251.501 263.541 250.319 264.064 249.302C264.587 248.285 265.322 247.493 266.271 246.924C267.226 246.356 268.345 246.072 269.629 246.072C270.493 246.072 271.297 246.211 272.041 246.49C272.791 246.762 273.445 247.174 274.001 247.726C274.564 248.277 275.001 248.97 275.314 249.805C275.626 250.635 275.783 251.606 275.783 252.72V253.717H264.729V251.467H272.365C272.365 250.944 272.251 250.481 272.024 250.078C271.797 249.674 271.482 249.359 271.078 249.132C270.68 248.899 270.217 248.782 269.689 248.782C269.138 248.782 268.649 248.91 268.223 249.166C267.803 249.416 267.473 249.754 267.234 250.18C266.996 250.601 266.874 251.069 266.868 251.586V253.726C266.868 254.373 266.987 254.933 267.226 255.405C267.47 255.876 267.814 256.24 268.257 256.495C268.7 256.751 269.226 256.879 269.834 256.879C270.237 256.879 270.607 256.822 270.942 256.708C271.277 256.595 271.564 256.424 271.803 256.197C272.041 255.97 272.223 255.691 272.348 255.362L275.706 255.583C275.536 256.39 275.186 257.095 274.658 257.697C274.135 258.294 273.459 258.76 272.629 259.095C271.805 259.424 270.854 259.589 269.774 259.589ZM281.783 251.765V259.333H278.152V241.879H281.68V248.552H281.834C282.129 247.78 282.607 247.174 283.266 246.737C283.925 246.294 284.751 246.072 285.746 246.072C286.655 246.072 287.447 246.271 288.124 246.669C288.805 247.061 289.334 247.626 289.709 248.365C290.089 249.098 290.277 249.976 290.271 250.998V259.333H286.641V251.646C286.646 250.839 286.442 250.211 286.027 249.762C285.618 249.314 285.044 249.089 284.305 249.089C283.811 249.089 283.374 249.194 282.993 249.405C282.618 249.615 282.322 249.922 282.107 250.325C281.896 250.723 281.788 251.203 281.783 251.765ZM299.043 259.589C297.719 259.589 296.575 259.308 295.609 258.745C294.648 258.177 293.907 257.387 293.384 256.376C292.862 255.359 292.6 254.18 292.6 252.839C292.6 251.487 292.862 250.305 293.384 249.294C293.907 248.277 294.648 247.487 295.609 246.924C296.575 246.356 297.719 246.072 299.043 246.072C300.367 246.072 301.509 246.356 302.469 246.924C303.435 247.487 304.18 248.277 304.702 249.294C305.225 250.305 305.487 251.487 305.487 252.839C305.487 254.18 305.225 255.359 304.702 256.376C304.18 257.387 303.435 258.177 302.469 258.745C301.509 259.308 300.367 259.589 299.043 259.589ZM299.06 256.777C299.663 256.777 300.165 256.606 300.569 256.265C300.972 255.919 301.276 255.447 301.481 254.851C301.691 254.254 301.796 253.575 301.796 252.814C301.796 252.052 301.691 251.373 301.481 250.777C301.276 250.18 300.972 249.708 300.569 249.362C300.165 249.015 299.663 248.842 299.06 248.842C298.452 248.842 297.941 249.015 297.526 249.362C297.117 249.708 296.808 250.18 296.597 250.777C296.393 251.373 296.29 252.052 296.29 252.814C296.29 253.575 296.393 254.254 296.597 254.851C296.808 255.447 297.117 255.919 297.526 256.265C297.941 256.606 298.452 256.777 299.06 256.777ZM311.478 241.879V259.333H307.847V241.879H311.478ZM319.21 259.547C318.216 259.547 317.315 259.291 316.509 258.78C315.707 258.262 315.071 257.504 314.599 256.504C314.134 255.498 313.901 254.265 313.901 252.805C313.901 251.305 314.142 250.058 314.625 249.064C315.108 248.064 315.75 247.316 316.551 246.822C317.358 246.322 318.241 246.072 319.202 246.072C319.935 246.072 320.545 246.197 321.034 246.447C321.528 246.691 321.926 246.998 322.227 247.368C322.534 247.731 322.767 248.089 322.926 248.441H323.037V241.879H326.659V259.333H323.08V257.237H322.926C322.756 257.601 322.514 257.961 322.202 258.319C321.895 258.672 321.494 258.964 321 259.197C320.511 259.43 319.915 259.547 319.21 259.547ZM320.361 256.657C320.946 256.657 321.44 256.498 321.844 256.18C322.253 255.856 322.565 255.405 322.781 254.825C323.003 254.245 323.114 253.566 323.114 252.788C323.114 252.01 323.006 251.333 322.79 250.76C322.574 250.186 322.261 249.743 321.852 249.43C321.443 249.118 320.946 248.961 320.361 248.961C319.764 248.961 319.261 249.123 318.852 249.447C318.443 249.771 318.134 250.22 317.923 250.794C317.713 251.368 317.608 252.032 317.608 252.788C317.608 253.549 317.713 254.223 317.923 254.808C318.139 255.387 318.449 255.842 318.852 256.172C319.261 256.495 319.764 256.657 320.361 256.657ZM335.61 259.589C334.263 259.589 333.104 259.316 332.133 258.771C331.167 258.22 330.423 257.441 329.9 256.436C329.377 255.424 329.116 254.228 329.116 252.848C329.116 251.501 329.377 250.319 329.9 249.302C330.423 248.285 331.158 247.493 332.107 246.924C333.062 246.356 334.181 246.072 335.465 246.072C336.329 246.072 337.133 246.211 337.877 246.49C338.627 246.762 339.281 247.174 339.837 247.726C340.4 248.277 340.837 248.97 341.15 249.805C341.462 250.635 341.619 251.606 341.619 252.72V253.717H330.565V251.467H338.201C338.201 250.944 338.087 250.481 337.86 250.078C337.633 249.674 337.317 249.359 336.914 249.132C336.516 248.899 336.053 248.782 335.525 248.782C334.974 248.782 334.485 248.91 334.059 249.166C333.638 249.416 333.309 249.754 333.07 250.18C332.832 250.601 332.71 251.069 332.704 251.586V253.726C332.704 254.373 332.823 254.933 333.062 255.405C333.306 255.876 333.65 256.24 334.093 256.495C334.536 256.751 335.062 256.879 335.67 256.879C336.073 256.879 336.442 256.822 336.778 256.708C337.113 256.595 337.4 256.424 337.638 256.197C337.877 255.97 338.059 255.691 338.184 255.362L341.542 255.583C341.371 256.39 341.022 257.095 340.494 257.697C339.971 258.294 339.295 258.76 338.465 259.095C337.641 259.424 336.69 259.589 335.61 259.589ZM343.988 259.333V246.243H347.508V248.527H347.644C347.883 247.714 348.283 247.101 348.846 246.686C349.408 246.265 350.056 246.055 350.789 246.055C350.971 246.055 351.167 246.066 351.377 246.089C351.587 246.112 351.772 246.143 351.931 246.183V249.405C351.761 249.353 351.525 249.308 351.224 249.268C350.923 249.228 350.647 249.208 350.397 249.208C349.863 249.208 349.386 249.325 348.965 249.558C348.55 249.785 348.221 250.103 347.977 250.512C347.738 250.922 347.619 251.393 347.619 251.927V259.333H343.988Z" fill="white"/>
</svg>
