<svg width="20" height="21" viewBox="0 0 20 21" fill="none" xmlns="http://www.w3.org/2000/svg">
<path d="M11.5 2.0835C11.5 1.25381 10.8297 0.583496 10 0.583496C9.17031 0.583496 8.5 1.25381 8.5 2.0835V8.8335H1.75C0.920312 8.8335 0.25 9.50381 0.25 10.3335C0.25 11.1632 0.920312 11.8335 1.75 11.8335H8.5V18.5835C8.5 19.4132 9.17031 20.0835 10 20.0835C10.8297 20.0835 11.5 19.4132 11.5 18.5835V11.8335H18.25C19.0797 11.8335 19.75 11.1632 19.75 10.3335C19.75 9.50381 19.0797 8.8335 18.25 8.8335H11.5V2.0835Z" fill="#FCFCFD"/>
</svg>
