<svg width="313" height="22" viewBox="0 0 313 22" fill="none" xmlns="http://www.w3.org/2000/svg">
<g clip-path="url(#clip0_300_95)">
<path d="M13.204 0.75C12.9832 0.291667 12.5165 0 12.004 0C11.4915 0 11.029 0.291667 10.804 0.75L8.12488 6.2625L2.14154 7.14583C1.64154 7.22083 1.22488 7.57083 1.07071 8.05C0.916545 8.52917 1.04154 9.05833 1.39988 9.4125L5.74154 13.7083L4.71654 19.7792C4.63321 20.2792 4.84154 20.7875 5.25404 21.0833C5.66654 21.3792 6.21238 21.4167 6.66238 21.1792L12.0082 18.325L17.354 21.1792C17.804 21.4167 18.3499 21.3833 18.7624 21.0833C19.1749 20.7833 19.3832 20.2792 19.2999 19.7792L18.2707 13.7083L22.6124 9.4125C22.9707 9.05833 23.0999 8.52917 22.9415 8.05C22.7832 7.57083 22.3707 7.22083 21.8707 7.14583L15.8832 6.2625L13.204 0.75Z" fill="url(#paint0_linear_300_95)"/>
</g>
<g clip-path="url(#clip1_300_95)">
<path d="M45.204 0.75C44.9832 0.291667 44.5165 0 44.004 0C43.4915 0 43.029 0.291667 42.804 0.75L40.1249 6.2625L34.1415 7.14583C33.6415 7.22083 33.2249 7.57083 33.0707 8.05C32.9165 8.52917 33.0415 9.05833 33.3999 9.4125L37.7415 13.7083L36.7165 19.7792C36.6332 20.2792 36.8415 20.7875 37.254 21.0833C37.6665 21.3792 38.2124 21.4167 38.6624 21.1792L44.0082 18.325L49.354 21.1792C49.804 21.4167 50.3499 21.3833 50.7624 21.0833C51.1749 20.7833 51.3832 20.2792 51.2999 19.7792L50.2707 13.7083L54.6124 9.4125C54.9707 9.05833 55.0999 8.52917 54.9415 8.05C54.7832 7.57083 54.3707 7.22083 53.8707 7.14583L47.8832 6.2625L45.204 0.75Z" fill="url(#paint1_linear_300_95)"/>
</g>
<g clip-path="url(#clip2_300_95)">
<path d="M77.204 0.75C76.9832 0.291667 76.5165 0 76.004 0C75.4915 0 75.029 0.291667 74.804 0.75L72.1249 6.2625L66.1415 7.14583C65.6415 7.22083 65.2249 7.57083 65.0707 8.05C64.9165 8.52917 65.0415 9.05833 65.3999 9.4125L69.7415 13.7083L68.7165 19.7792C68.6332 20.2792 68.8415 20.7875 69.254 21.0833C69.6665 21.3792 70.2124 21.4167 70.6624 21.1792L76.0082 18.325L81.354 21.1792C81.804 21.4167 82.3499 21.3833 82.7624 21.0833C83.1749 20.7833 83.3832 20.2792 83.2999 19.7792L82.2707 13.7083L86.6124 9.4125C86.9707 9.05833 87.0999 8.52917 86.9415 8.05C86.7832 7.57083 86.3707 7.22083 85.8707 7.14583L79.8832 6.2625L77.204 0.75Z" fill="url(#paint2_linear_300_95)"/>
</g>
<g clip-path="url(#clip3_300_95)">
<path d="M109.204 0.75C108.983 0.291667 108.517 0 108.004 0C107.492 0 107.029 0.291667 106.804 0.75L104.125 6.2625L98.1415 7.14583C97.6415 7.22083 97.2249 7.57083 97.0707 8.05C96.9165 8.52917 97.0415 9.05833 97.3999 9.4125L101.742 13.7083L100.717 19.7792C100.633 20.2792 100.842 20.7875 101.254 21.0833C101.667 21.3792 102.212 21.4167 102.662 21.1792L108.008 18.325L113.354 21.1792C113.804 21.4167 114.35 21.3833 114.762 21.0833C115.175 20.7833 115.383 20.2792 115.3 19.7792L114.271 13.7083L118.612 9.4125C118.971 9.05833 119.1 8.52917 118.942 8.05C118.783 7.57083 118.371 7.22083 117.871 7.14583L111.883 6.2625L109.204 0.75Z" fill="url(#paint3_linear_300_95)"/>
</g>
<g clip-path="url(#clip4_300_95)">
<path d="M141.204 0.75C140.983 0.291667 140.517 0 140.004 0C139.492 0 139.029 0.291667 138.804 0.75L136.125 6.2625L130.142 7.14583C129.642 7.22083 129.225 7.57083 129.071 8.05C128.917 8.52917 129.042 9.05833 129.4 9.4125L133.742 13.7083L132.717 19.7792C132.633 20.2792 132.842 20.7875 133.254 21.0833C133.667 21.3792 134.212 21.4167 134.662 21.1792L140.008 18.325L145.354 21.1792C145.804 21.4167 146.35 21.3833 146.762 21.0833C147.175 20.7833 147.383 20.2792 147.3 19.7792L146.271 13.7083L150.612 9.4125C150.971 9.05833 151.1 8.52917 150.942 8.05C150.783 7.57083 150.371 7.22083 149.871 7.14583L143.883 6.2625L141.204 0.75Z" fill="url(#paint4_linear_300_95)"/>
</g>
<defs>
<linearGradient id="paint0_linear_300_95" x1="23.0082" y1="10.6679" x2="1.00586" y2="10.6679" gradientUnits="userSpaceOnUse">
<stop stop-color="#491C96"/>
<stop offset="1" stop-color="#7839EE"/>
</linearGradient>
<linearGradient id="paint1_linear_300_95" x1="55.0082" y1="10.6679" x2="33.0059" y2="10.6679" gradientUnits="userSpaceOnUse">
<stop stop-color="#491C96"/>
<stop offset="1" stop-color="#7839EE"/>
</linearGradient>
<linearGradient id="paint2_linear_300_95" x1="87.0082" y1="10.6679" x2="65.0059" y2="10.6679" gradientUnits="userSpaceOnUse">
<stop stop-color="#491C96"/>
<stop offset="1" stop-color="#7839EE"/>
</linearGradient>
<linearGradient id="paint3_linear_300_95" x1="119.008" y1="10.6679" x2="97.0059" y2="10.6679" gradientUnits="userSpaceOnUse">
<stop stop-color="#491C96"/>
<stop offset="1" stop-color="#7839EE"/>
</linearGradient>
<linearGradient id="paint4_linear_300_95" x1="151.008" y1="10.6679" x2="129.006" y2="10.6679" gradientUnits="userSpaceOnUse">
<stop stop-color="#491C96"/>
<stop offset="1" stop-color="#7839EE"/>
</linearGradient>
<clipPath id="clip0_300_95">
<rect width="24" height="21.3333" fill="white"/>
</clipPath>
<clipPath id="clip1_300_95">
<rect width="24" height="21.3333" fill="white" transform="translate(32)"/>
</clipPath>
<clipPath id="clip2_300_95">
<rect width="24" height="21.3333" fill="white" transform="translate(64)"/>
</clipPath>
<clipPath id="clip3_300_95">
<rect width="24" height="21.3333" fill="white" transform="translate(96)"/>
</clipPath>
<clipPath id="clip4_300_95">
<rect width="24" height="21.3333" fill="white" transform="translate(128)"/>
</clipPath>
</defs>
</svg>
